<svg width="32" height="33" viewBox="0 0 32 33" fill="none" xmlns="http://www.w3.org/2000/svg">
<path d="M0.66626 11.0032L7.02662 3.13546C8.15929 1.75591 10.0979 1.30324 11.7098 2.1008L14.084 3.24323L0.66626 11.0032Z" fill="#001316"/>
<path d="M16.1094 0.182617L27.9588 9.79634L28.2638 7.42524C28.5034 5.61459 27.4143 3.89015 25.6499 3.30816L16.1094 0.182617Z" fill="#001316"/>
<path d="M31.6396 11.1757L26.0852 25.316L28.4594 24.8634C30.2674 24.5185 31.5961 22.9665 31.5961 21.1343L31.6396 11.1757Z" fill="#001316"/>
<path d="M25.7577 28.3555H10.4231L11.7082 30.3817C12.6884 31.9337 14.627 32.5803 16.3696 31.9337L25.7577 28.3555Z" fill="#001316"/>
<path d="M3.34456 14.0205L1.44952 15.8312C0.164382 17.0814 -0.0970024 19.0214 0.839626 20.5518L6.13266 29.1524L3.34456 14.0205Z" fill="#001316"/>
</svg>